<svg width="290" height="290" viewBox="0 0 290 290" fill="none" xmlns="http://www.w3.org/2000/svg">
<path fill-rule="evenodd" clip-rule="evenodd" d="M188.458 120.007C198.994 126.525 207.942 135.358 214.588 145.794C207.782 156.483 198.561 165.489 187.692 172.049C183.69 177.449 178.502 182.05 172.47 185.537C192.14 179.172 208.774 166.086 219.651 149.006C220.9 147.046 220.9 144.542 219.651 142.582C209.178 126.138 193.37 113.395 174.652 106.789C180.136 110.328 184.833 114.822 188.458 120.007ZM114.577 107.281C96.4535 114.016 81.1548 126.537 70.9362 142.582C69.6879 144.542 69.6879 147.046 70.9362 149.006C81.5545 165.679 97.6582 178.546 116.717 185.071C110.774 181.495 105.686 176.824 101.793 171.372C91.4024 164.875 82.5744 156.119 75.9991 145.794C82.4186 135.714 90.9851 127.13 101.056 120.682C104.578 115.452 109.18 110.898 114.577 107.281Z" fill="black"/>
<path fill-rule="evenodd" clip-rule="evenodd" d="M178.783 132.127C175 122.588 167.247 114.686 156.795 111.046C137.856 104.451 117.17 114.33 110.358 133.131L104.006 133.224C104.171 132.681 104.348 132.139 104.536 131.598C112.272 109.383 136.552 97.6448 158.768 105.381C171.698 109.883 181.079 119.991 185.137 132.034L178.783 132.127Z" fill="black"/>
<path d="M112.61 137.591C111.412 141.033 107.65 142.852 104.208 141.653C100.766 140.455 98.9477 136.693 100.146 133.251C101.345 129.809 105.107 127.991 108.548 129.189C111.99 130.388 113.809 134.149 112.61 137.591Z" fill="black"/>
<path fill-rule="evenodd" clip-rule="evenodd" d="M110.068 157.589C113.852 167.129 121.605 175.031 132.057 178.67C150.996 185.265 171.682 175.386 178.494 156.585L184.846 156.492C184.681 157.035 184.504 157.577 184.316 158.118C176.58 180.334 152.299 192.072 130.084 184.336C117.154 179.833 107.773 169.726 103.715 157.683L110.068 157.589Z" fill="black"/>
<path d="M176.242 152.126C177.441 148.684 181.203 146.865 184.644 148.064C188.086 149.262 189.905 153.024 188.706 156.466C187.508 159.908 183.746 161.726 180.304 160.528C176.862 159.329 175.044 155.567 176.242 152.126Z" fill="black"/>
<path fill-rule="evenodd" clip-rule="evenodd" d="M145.29 174.486C160.932 174.486 173.612 161.497 173.612 145.474C173.612 129.451 160.932 116.461 145.29 116.461C129.649 116.461 116.969 129.451 116.969 145.474C116.969 161.497 129.649 174.486 145.29 174.486ZM154.517 137.652C154.517 141.141 152.655 144.185 149.894 145.797L152.182 159.436C152.43 160.913 151.319 162.263 149.856 162.263H140.576C139.113 162.263 138.002 160.913 138.25 159.436L140.567 145.625C137.962 143.974 136.226 141.021 136.226 137.652C136.226 132.478 140.321 128.284 145.372 128.284C150.422 128.284 154.517 132.478 154.517 137.652Z" fill="black"/>
</svg>
