<svg width="151" height="84" viewBox="0 0 151 84" fill="none" xmlns="http://www.w3.org/2000/svg">
<path fill-rule="evenodd" clip-rule="evenodd" d="M118.458 17.0071C128.994 23.5251 137.942 32.3581 144.588 42.7941C137.782 53.4831 128.561 62.4891 117.692 69.0491C113.69 74.4491 108.502 79.0501 102.47 82.5371C122.14 76.1721 138.774 63.0861 149.651 46.0061C150.9 44.0461 150.9 41.5421 149.651 39.5821C139.178 23.1381 123.37 10.3951 104.652 3.78906C110.136 7.32806 114.833 11.8221 118.458 17.0071ZM44.577 4.28106C26.4535 11.0161 11.1548 23.5371 0.936225 39.5821C-0.312075 41.5421 -0.312075 44.0461 0.936225 46.0061C11.5545 62.6791 27.6582 75.5461 46.717 82.0711C40.774 78.4951 35.686 73.8241 31.793 68.3721C21.4024 61.8751 12.5744 53.1191 5.99912 42.7941C12.4186 32.7141 20.9851 24.1301 31.056 17.6821C34.578 12.4521 39.18 7.89806 44.577 4.28106Z" fill="white"/>
<path fill-rule="evenodd" clip-rule="evenodd" d="M108.785 29.1268C105.002 19.5878 97.2488 11.6858 86.7968 8.04576C67.8578 1.45076 47.1718 11.3298 40.3598 30.1308L34.0078 30.2238C34.1728 29.6808 34.3498 29.1388 34.5378 28.5978C42.2738 6.38277 66.5538 -5.35544 88.7698 2.38076C101.7 6.88276 111.081 16.9908 115.139 29.0338L108.785 29.1268Z" fill="white"/>
<path d="M42.6101 34.5909C41.4121 38.0329 37.6501 39.8519 34.2081 38.6529C30.7661 37.4549 28.9478 33.693 30.1461 30.251C31.3451 26.809 35.1071 24.9909 38.5481 26.1889C41.9901 27.3879 43.8091 31.1489 42.6101 34.5909Z" fill="white"/>
<path fill-rule="evenodd" clip-rule="evenodd" d="M40.0678 54.5892C43.8518 64.1292 51.6049 72.0312 62.0569 75.6702C80.9959 82.2652 101.682 72.3862 108.494 53.5852L114.846 53.4922C114.681 54.0352 114.504 54.5772 114.316 55.1182C106.58 77.3342 82.2988 89.0722 60.0838 81.3362C47.1538 76.8332 37.7728 66.7262 33.7148 54.6832L40.0678 54.5892Z" fill="white"/>
<path d="M106.244 49.1263C107.443 45.6843 111.205 43.8653 114.646 45.0643C118.088 46.2623 119.907 50.0243 118.708 53.4663C117.51 56.9083 113.748 58.7263 110.306 57.5283C106.864 56.3293 105.046 52.5673 106.244 49.1263Z" fill="white"/>
<path fill-rule="evenodd" clip-rule="evenodd" d="M75.2897 71.4859C90.9317 71.4859 103.612 58.4969 103.612 42.4739C103.612 26.4509 90.9317 13.4609 75.2897 13.4609C59.6487 13.4609 46.9688 26.4509 46.9688 42.4739C46.9688 58.4969 59.6487 71.4859 75.2897 71.4859ZM84.5167 34.6519C84.5167 38.1409 82.6547 41.1849 79.8937 42.7969L82.1818 56.4359C82.4298 57.9129 81.3188 59.2629 79.8558 59.2629H70.5758C69.1128 59.2629 68.0017 57.9129 68.2497 56.4359L70.5667 42.6249C67.9617 40.9739 66.2257 38.0209 66.2257 34.6519C66.2257 29.4779 70.3207 25.2839 75.3717 25.2839C80.4217 25.2839 84.5167 29.4779 84.5167 34.6519Z" fill="white"/>
</svg>
